<?xml version="1.0" encoding="iso-8859-1"?>
<!-- Generator: Adobe Illustrator 19.0.0, SVG Export Plug-In . SVG Version: 6.00 Build 0)  -->
<svg version="1.1" id="Capa_1" xmlns="http://www.w3.org/2000/svg" xmlns:xlink="http://www.w3.org/1999/xlink" x="0px" y="0px"
	 viewBox="0 0 512 512" style="enable-background:new 0 0 512 512;" xml:space="preserve">
<rect x="136.531" y="42.67" style="fill:#4398D1;" width="238.929" height="460.792"/>
<polygon style="fill:#3F8FC4;" points="136.54,375.465 136.54,503.462 375.469,503.462 375.469,109.989 "/>
<rect x="170.664" y="8.537" style="fill:#4398D1;" width="170.664" height="34.133"/>
<rect x="170.664" y="25.604" style="fill:#3F8FC4;" width="170.664" height="17.066"/>
<g>
	<rect x="170.664" y="85.336" style="fill:#87CED9;" width="34.133" height="34.133"/>
	<rect x="238.929" y="85.336" style="fill:#87CED9;" width="34.133" height="34.133"/>
	<rect x="307.195" y="85.336" style="fill:#87CED9;" width="34.133" height="34.133"/>
	<rect x="170.664" y="153.602" style="fill:#87CED9;" width="34.133" height="34.133"/>
	<rect x="238.929" y="153.602" style="fill:#87CED9;" width="34.133" height="34.133"/>
	<rect x="307.195" y="153.602" style="fill:#87CED9;" width="34.133" height="34.133"/>
	<rect x="170.664" y="221.867" style="fill:#87CED9;" width="34.133" height="34.133"/>
	<rect x="238.929" y="221.867" style="fill:#87CED9;" width="34.133" height="34.133"/>
	<rect x="307.195" y="221.867" style="fill:#87CED9;" width="34.133" height="34.133"/>
	<rect x="170.664" y="290.133" style="fill:#87CED9;" width="34.133" height="34.133"/>
	<rect x="238.929" y="290.133" style="fill:#87CED9;" width="34.133" height="34.133"/>
	<rect x="307.195" y="290.133" style="fill:#87CED9;" width="34.133" height="34.133"/>
	<rect x="170.664" y="358.398" style="fill:#87CED9;" width="34.133" height="34.133"/>
	<rect x="238.929" y="358.398" style="fill:#87CED9;" width="34.133" height="34.133"/>
	<rect x="307.195" y="358.398" style="fill:#87CED9;" width="34.133" height="34.133"/>
	<rect x="204.797" y="435.197" style="fill:#87CED9;" width="102.398" height="68.266"/>
</g>
<rect x="247.462" y="435.197" style="fill:#61ACC9;" width="17.066" height="68.266"/>
<path style="fill:#88B337;" d="M83.634,369.056c2.057-6.238,2.278-12.928,0.657-19.285c-3.089-12.16-12.663-21.615-24.866-24.55
	c-18.338-4.506-36.855,6.707-41.36,25.045c-0.657,2.671-0.99,5.393-0.99,8.132c0,3.021,0.401,6.024,1.195,8.934
	c3.823,12.689,2.381,26.385-4.011,37.998c-11.784,20.411-4.787,46.497,15.616,58.282c20.403,11.784,46.497,4.787,58.282-15.616
	c7.364-12.757,7.629-28.416,0.7-41.412C82.047,395.321,80.152,381.754,83.634,369.056z"/>
<rect x="42.666" y="358.398" style="fill:#79A125;" width="17.066" height="153.597"/>
<path style="fill:#88B337;" d="M493.227,369.056c2.057-6.238,2.278-12.928,0.657-19.285c-3.089-12.16-12.663-21.615-24.866-24.55
	c-18.338-4.506-36.855,6.707-41.36,25.045c-0.657,2.671-0.99,5.393-0.99,8.132c0,3.021,0.401,6.024,1.195,8.934
	c3.831,12.697,2.389,26.41-4.011,38.032c-11.784,20.411-4.787,46.497,15.616,58.282c20.403,11.784,46.497,4.787,58.282-15.616
	c7.364-12.757,7.629-28.416,0.7-41.412C491.631,395.347,489.737,381.771,493.227,369.056z"/>
<rect x="452.259" y="358.398" style="fill:#79A125;" width="17.066" height="153.597"/>
<rect x="0.001" y="494.929" style="fill:#E0D2C1;" width="511.991" height="17.066"/>
<path d="M204.805,76.803h-34.133c-4.71,0-8.533,3.823-8.533,8.533v34.133c0,4.71,3.823,8.533,8.533,8.533h34.133
	c4.71,0,8.533-3.823,8.533-8.533V85.336C213.338,80.626,209.515,76.803,204.805,76.803z M196.272,110.936h-17.066V93.869h17.066
	V110.936z"/>
<path d="M273.071,76.803h-34.133c-4.71,0-8.533,3.823-8.533,8.533v34.133c0,4.71,3.823,8.533,8.533,8.533h34.133
	c4.71,0,8.533-3.823,8.533-8.533V85.336C281.604,80.626,277.781,76.803,273.071,76.803z M264.537,110.936h-17.066V93.869h17.066
	V110.936z"/>
<path d="M307.203,76.803c-4.71,0-8.533,3.823-8.533,8.533v34.133c0,4.71,3.823,8.533,8.533,8.533h34.133
	c4.71,0,8.533-3.823,8.533-8.533V85.336c0-4.71-3.823-8.533-8.533-8.533H307.203z M332.803,110.936h-17.066V93.869h17.066V110.936z"
	/>
<path d="M204.805,145.068h-34.133c-4.71,0-8.533,3.823-8.533,8.533v34.133c0,4.71,3.823,8.533,8.533,8.533h34.133
	c4.71,0,8.533-3.823,8.533-8.533v-34.133C213.338,148.891,209.515,145.068,204.805,145.068z M196.272,179.201h-17.066v-17.066
	h17.066V179.201z"/>
<path d="M273.071,145.068h-34.133c-4.71,0-8.533,3.823-8.533,8.533v34.133c0,4.71,3.823,8.533,8.533,8.533h34.133
	c4.71,0,8.533-3.823,8.533-8.533v-34.133C281.604,148.891,277.781,145.068,273.071,145.068z M264.537,179.201h-17.066v-17.066
	h17.066V179.201z"/>
<path d="M341.336,145.068h-34.133c-4.71,0-8.533,3.823-8.533,8.533v34.133c0,4.71,3.823,8.533,8.533,8.533h34.133
	c4.71,0,8.533-3.823,8.533-8.533v-34.133C349.869,148.891,346.046,145.068,341.336,145.068z M332.803,179.201h-17.066v-17.066
	h17.066V179.201z"/>
<path d="M204.805,213.334h-34.133c-4.71,0-8.533,3.823-8.533,8.533V256c0,4.71,3.823,8.533,8.533,8.533h34.133
	c4.71,0,8.533-3.823,8.533-8.533v-34.133C213.338,217.157,209.515,213.334,204.805,213.334z M196.272,247.467h-17.066V230.4h17.066
	V247.467z"/>
<path d="M273.071,213.334h-34.133c-4.71,0-8.533,3.823-8.533,8.533V256c0,4.71,3.823,8.533,8.533,8.533h34.133
	c4.71,0,8.533-3.823,8.533-8.533v-34.133C281.604,217.157,277.781,213.334,273.071,213.334z M264.537,247.467h-17.066V230.4h17.066
	V247.467z"/>
<path d="M341.336,213.334h-34.133c-4.71,0-8.533,3.823-8.533,8.533V256c0,4.71,3.823,8.533,8.533,8.533h34.133
	c4.71,0,8.533-3.823,8.533-8.533v-34.133C349.869,217.157,346.046,213.334,341.336,213.334z M332.803,247.467h-17.066V230.4h17.066
	V247.467z"/>
<path d="M204.805,281.6h-34.133c-4.71,0-8.533,3.823-8.533,8.533v34.133c0,4.71,3.823,8.533,8.533,8.533h34.133
	c4.71,0,8.533-3.823,8.533-8.533v-34.133C213.338,285.422,209.515,281.6,204.805,281.6z M196.272,315.732h-17.066v-17.066h17.066
	V315.732z"/>
<path d="M273.071,281.6h-34.133c-4.71,0-8.533,3.823-8.533,8.533v34.133c0,4.71,3.823,8.533,8.533,8.533h34.133
	c4.71,0,8.533-3.823,8.533-8.533v-34.133C281.604,285.422,277.781,281.6,273.071,281.6z M264.537,315.732h-17.066v-17.066h17.066
	V315.732z"/>
<path d="M341.336,281.6h-34.133c-4.71,0-8.533,3.823-8.533,8.533v34.133c0,4.71,3.823,8.533,8.533,8.533h34.133
	c4.71,0,8.533-3.823,8.533-8.533v-34.133C349.869,285.422,346.046,281.6,341.336,281.6z M332.803,315.732h-17.066v-17.066h17.066
	V315.732z"/>
<path d="M204.805,349.865h-34.133c-4.71,0-8.533,3.823-8.533,8.533v34.133c0,4.71,3.823,8.533,8.533,8.533h34.133
	c4.71,0,8.533-3.823,8.533-8.533v-34.133C213.338,353.688,209.515,349.865,204.805,349.865z M196.272,383.998h-17.066v-17.066
	h17.066V383.998z"/>
<path d="M273.071,349.865h-34.133c-4.71,0-8.533,3.823-8.533,8.533v34.133c0,4.71,3.823,8.533,8.533,8.533h34.133
	c4.71,0,8.533-3.823,8.533-8.533v-34.133C281.604,353.688,277.781,349.865,273.071,349.865z M264.537,383.998h-17.066v-17.066
	h17.066V383.998z"/>
<path d="M341.336,349.865h-34.133c-4.71,0-8.533,3.823-8.533,8.533v34.133c0,4.71,3.823,8.533,8.533,8.533h34.133
	c4.71,0,8.533-3.823,8.533-8.533v-34.133C349.869,353.688,346.046,349.865,341.336,349.865z M332.803,383.998h-17.066v-17.066
	h17.066V383.998z"/>
<path d="M493.073,466.411c19.02-15.454,24.422-42.205,12.894-63.828c-5.649-9.224-7.33-20.343-4.668-30.83
	c2.56-7.765,2.859-16.102,0.853-24.029c-3.857-15.283-15.889-27.153-31.223-30.805c-22.886-5.598-45.985,8.422-51.575,31.317
	c-1.715,7.031-1.621,14.378,0.282,21.359c3.217,10.487,2.074,21.836-3.166,31.47c-14.148,24.482-5.768,55.799,18.713,69.947
	c4.565,2.637,9.515,4.557,14.669,5.683c0.802,0.171,1.613,0.247,2.415,0.375v17.86h-68.266V42.67c0-4.71-3.823-8.533-8.533-8.533
	h-25.6v-25.6c0-4.71-3.823-8.533-8.533-8.533H170.672c-4.71,0-8.533,3.823-8.533,8.533v25.6h-25.6c-4.71,0-8.533,3.823-8.533,8.533
	v452.259H59.741v-17.809c27.861-4.685,46.642-31.069,41.958-58.922c-0.922-5.461-2.714-10.735-5.325-15.616
	c-5.649-9.224-7.33-20.343-4.668-30.83c2.56-7.765,2.859-16.102,0.853-24.029c-3.857-15.283-15.889-27.153-31.223-30.805
	c-22.886-5.598-45.985,8.422-51.575,31.317c-1.715,7.031-1.621,14.378,0.282,21.359c3.217,10.496,2.073,21.836-3.166,31.47
	c-14.148,24.482-5.768,55.799,18.713,69.947c4.565,2.637,9.515,4.557,14.669,5.683c0.802,0.171,1.613,0.247,2.415,0.375v17.86H0.008
	v17.066H512v-17.066h-42.666v-17.809C478.038,475.67,486.221,471.984,493.073,466.411z M42.674,358.398v101.298
	c-18.218-4.651-29.209-23.185-24.567-41.403c0.777-3.029,1.963-5.939,3.533-8.644c7.552-13.602,9.293-29.678,4.821-44.586
	c-0.58-2.176-0.87-4.412-0.853-6.664c-0.017-7.825,3.558-15.215,9.702-20.062c4.488-3.601,10.078-5.555,15.838-5.538
	c2.125,0,4.25,0.247,6.323,0.734c13.687,3.413,22.007,17.28,18.594,30.967c-0.154,0.623-0.333,1.246-0.538,1.852l0,0
	c-4.224,14.933-2.125,30.941,5.803,44.279c2.654,4.924,4.028,10.436,4.011,16.034c0.034,15.565-10.513,29.166-25.6,33.015v-101.28
	H42.674z M179.205,17.071h153.597v17.066H179.205V17.071z M247.471,494.929h-34.133V443.73h34.133V494.929z M298.67,494.929h-34.133
	V443.73h34.133V494.929z M366.936,494.929h-51.199v-59.732c0-4.71-3.823-8.533-8.533-8.533H204.805c-4.71,0-8.533,3.823-8.533,8.533
	v59.732h-51.199V51.203h221.863V494.929z M452.268,358.398v101.298c-18.218-4.651-29.209-23.185-24.567-41.403
	c0.777-3.029,1.963-5.939,3.533-8.644c7.56-13.602,9.318-29.678,4.855-44.586c-0.589-2.176-0.887-4.412-0.887-6.664
	c-0.017-7.825,3.558-15.215,9.702-20.062c4.488-3.601,10.078-5.555,15.838-5.538c2.125,0,4.25,0.247,6.323,0.734
	c13.687,3.413,22.007,17.28,18.594,30.967c-0.154,0.623-0.333,1.246-0.538,1.852l0,0c-4.224,14.933-2.125,30.941,5.803,44.279
	c2.654,4.924,4.028,10.436,4.011,16.034c0.034,15.565-10.513,29.166-25.6,33.015v-101.28H452.268z"/>
<g>
</g>
<g>
</g>
<g>
</g>
<g>
</g>
<g>
</g>
<g>
</g>
<g>
</g>
<g>
</g>
<g>
</g>
<g>
</g>
<g>
</g>
<g>
</g>
<g>
</g>
<g>
</g>
<g>
</g>
</svg>
